#!OML:ASF F:\VICON\USERDATA\INSTALL\rory3\rory3.ASF
:FULLY-SPECIFIED
:DEGREES
62
root 0.4534511411775203 14.985499617166134 -18.63790897855363 33.71912328655443 -1.5005203931766575 -3.034689930842584
lfemur -55.01008043661474 10.025116946059637 -17.979863458652456
ltibia 70.92517277887835
lfoot -21.89036446356566 10.556299745991273
ltoes -20.2242329152284
rfemur -78.59644300160235 -1.6270103898130355 23.40292245258961
rtibia 79.02726765452745
rfoot -29.243675956273734 -11.037111081752123
rtoes -1.7306335609568615
lowerback 17.24802903216457 0.13078975926773956 0.04859854214298416
upperback 0.2530854985141935 0.2103419549561253 2.1782875127408934
thorax -9.07718106621976 0.1459127760902477 2.0992154183982445
lowerneck -19.384728176863803 1.0510469233229298 -1.8696268317510105
upperneck 4.889908023562638 2.0268363105025027 -2.6737695293907566
head 4.281816121202671 0.8640880897535813 -0.20718915899616958
lclavicle 5.760208528774127e-16 -3.1046203782614966e-16
lhumerus -12.519990252450938 9.16063078846289 83.93414127464135
lradius 16.40642016411421
lwrist 1.1777393784110384
lhand -26.858849246664715 -6.198620583181151
lfingers 7.125019999999998
lthumb -0.17250309502373873 23.754339990297307
rclavicle 5.753541884655077e-16 -3.120038778374658e-16
rhumerus -17.562202338608305 -14.067003272485803 -82.3367528719771
rradius 22.40565278522181
rwrist 36.45506193646022
rhand -22.148063509023107 -26.99706533535913
rfingers 7.125019999999998
rthumb 4.130620650874604 -56.96320477274089
63
root 0.43957371854014526 14.91536126292843 -18.590257396605324 34.44683388686825 -1.335794854182518 -2.957662962611697
lfemur -54.61154479524303 10.026902237782172 -18.053141621537335
ltibia 71.25875505938396
lfoot -22.07856317743886 11.029712005061096
ltoes -19.899491275900566
rfemur -78.27158896782166 -1.464893200159756 23.32852781928663
rtibia 79.7626349376695
rfoot -29.59395795501885 -11.807400438409639
rtoes -1.3743263416006855
lowerback 17.499171587653056 0.08065356202003232 -0.04240024098081574
upperback 0.19465889599622876 0.12709928959111316 2.1883637783733847
thorax -9.156184455425983 0.10978394430854327 2.186825063288939
lowerneck -19.42559289630819 1.050849420840025 -1.8765478827559996
upperneck 4.453768721199662 2.02454577454782 -2.688383969658572
head 4.098186253934409 0.8707516463950538 -0.21753907279466528
lclavicle 5.759504609601854e-16 -3.1057370402644325e-16
lhumerus -11.311786468626893 8.849120267090138 84.01222760497916
lradius 16.495732067052714
lwrist 1.480401855290487
lhand -27.01895171340734 -6.498753460753369
lfingers 7.125019999999998
lthumb -0.31101948896244047 23.489932178955364
rclavicle 5.752560678261569e-16 -3.1215296984295477e-16
rhumerus -17.378184228904786 -13.636214010093164 -82.29804555590782
rradius 22.611113159817357
rwrist 35.725592312800174
rhand -22.488117816506517 -27.100140144122708
rfingers 7.125019999999998
rthumb 3.827217791360443 -57.058107477569955
64
root 0.4179607307769164 14.85421927286718 -18.51924804547661 35.1907855941077 -1.0329337159836638 -2.950503315414113
lfemur -54.39655336596799 9.991683744311217 -18.093526827183798
ltibia 71.37934379966649
lfoot -22.136229217166267 11.20822491543694
ltoes -19.478030972866463
rfemur -77.94587014460703 -1.317556402905439 23.367881610024405
rtibia 80.30145425747301
rfoot -29.777358485508202 -12.560820152615497
rtoes -1.2419763358590536
lowerback 17.71031560956179 -0.006019327427835827 -0.09991091632320177
upperback 0.201116903420965 -0.0023172098086461645 2.215984256019629
thorax -9.021778593994828 0.049173288712701047 2.2824971465911474
lowerneck -19.424535915076593 1.0411687067033946 -1.8840299756837817
upperneck 4.066712294811813 2.0048694504878277 -2.667702450552628
head 3.9450350872173536 0.8707941512371864 -0.21717849441826137
lclavicle 5.759056865450666e-16 -3.106511972083793e-16
lhumerus -10.29865779974883 8.300136739327195 84.24992641765455
lradius 16.609148315464065
lwrist 1.8660872068458305
lhand -27.16024871587159 -6.7958137777961625
lfingers 7.125019999999998
lthumb -0.41527527056869373 23.22388152142235
rclavicle 5.751608542164931e-16 -3.1229714233197513e-16
rhumerus -17.338121762092495 -13.32614598669297 -82.17804997967103
rradius 22.788824248499054
rwrist 35.029021987491106
rhand -22.786239567058 -27.193856547789018
rfingers 7.125019999999998
rthumb 3.5677382318459676 -57.1113880513481
65
root 0.3908987679494761 14.79188058641539 -18.389727191858682 36.278067923777414 -0.6503240557152323 -2.912454980407641
lfemur -54.76948603052081 9.905170989323201 -18.18816591525846
ltibia 71.37178417850848
lfoot -22.040466877552735 11.128995650588017
ltoes -18.95183036694265
rfemur -77.87021992920737 -1.1607233472587917 23.450091411291933
rtibia 80.61532820900258
rfoot -29.847375373525225 -13.281143230197884
rtoes -1.4229772325276633
lowerback 17.872323323931845 -0.1047545704416581 -0.18455356925774224
upperback 0.22331506762933717 -0.14633425595025817 2.2390681889302804
thorax -8.743558699231652 -0.02002865429688809 2.394373918948854
lowerneck -19.374174358003728 1.0131317655152932 -1.8952353182881294
upperneck 3.6627293855742487 1.9606844861274138 -2.6138267772365715
head 3.80990739927687 0.8603723789910382 -0.2106875936699119
lclavicle 5.760183273219763e-16 -3.1049330151540667e-16
lhumerus -9.496369197980819 7.669566224069922 84.50200153163972
lradius 16.768075992766992
lwrist 2.3374400345519413
lhand -27.260626853107937 -7.068729785074097
lfingers 7.125019999999998
lthumb -0.48912529549153017 22.98763609446645
rclavicle 5.750790928993576e-16 -3.124211192400019e-16
rhumerus -17.44222489113104 -13.167796820701305 -81.99197970204816
rradius 22.928075334919303
rwrist 34.4319275465852
rhand -23.00652642008348 -27.27044062095802
rfingers 7.125019999999998
rthumb 3.3719032115618526 -57.134814893049025
